<?xml version="1.0" encoding="UTF-8"?>
<svg id="Layer_1" xmlns="http://www.w3.org/2000/svg" viewBox="0 0 291.54 520.5">
  <defs>
    <style>
      .cls-1 {
        fill: #6fb985;
      }

      .cls-2 {
        fill: #e0f9de;
      }

      .cls-3 {
        fill: #f1fef0;
      }

      .cls-4 {
        fill: #9ed4a0;
      }

      .cls-5 {
        fill: #bae9bc;
      }

      .cls-6 {
        fill: #7bc785;
      }

      .cls-7 {
        fill: #81c58f;
      }

      .cls-8 {
        fill: #9edaa4;
      }

      .cls-9 {
        fill: #a5d7ae;
      }

      .cls-10 {
        fill: #bbebb5;
      }

      .cls-11 {
        fill: #eafde2;
      }

      .cls-12 {
        fill: #80c494;
      }

      .cls-13 {
        fill: #d6f1d5;
      }

      .cls-14 {
        fill: #a2dcab;
      }

      .cls-15 {
        fill: #9bd6a4;
      }

      .cls-16 {
        fill: #f9fff3;
      }

      .cls-17 {
        fill: #8ed994;
      }

      .cls-18 {
        fill: #8dd294;
      }

      .cls-19 {
        fill: #6bba83;
      }

      .cls-20 {
        fill: #83c696;
      }

      .cls-21 {
        fill: #63d67e;
      }

      .cls-22 {
        fill: #5fac7a;
      }

      .cls-23 {
        fill: #edfae5;
      }

      .cls-24 {
        fill: #90cfa0;
      }
    </style>
  </defs>
  <polygon class="cls-7" points="291.29 520.03 291.29 520.25 178.91 520.25 156.28 470.93 172.15 426.06 291.17 520.03 291.29 520.03"/>
  <polygon class="cls-4" points="291.29 439.73 291.29 520.03 291.17 520.03 172.15 426.06 177.11 412.04 291.29 439.73"/>
  <polygon class="cls-14" points="291.29 290.99 291.29 439.73 177.11 412.04 192.37 368.93 291.29 290.99"/>
  <polygon class="cls-3" points="291.29 89.34 291.29 290.99 228.4 267.06 291.27 89.34 291.29 89.34"/>
  <polygon class="cls-16" points="291.29 .25 291.29 89.34 291.27 89.34 182.94 249.76 27.69 190.69 .29 130.98 .29 .25 291.29 .25"/>
  <polygon class="cls-5" points="291.29 290.99 192.37 368.93 203.77 336.69 291.29 290.99"/>
  <polygon class="cls-11" points="291.29 290.99 203.77 336.69 228.4 267.06 291.29 290.99"/>
  <polygon class="cls-2" points="291.27 89.34 228.4 267.06 182.94 249.76 291.27 89.34"/>
  <polygon class="cls-2" points="228.4 267.06 203.77 336.69 116.6 382.21 114.98 380.93 106.64 362.76 182.94 249.76 228.4 267.06"/>
  <polygon class="cls-24" points="203.77 336.69 192.37 368.93 146.93 404.72 144.32 404.09 116.6 382.21 203.77 336.69"/>
  <polygon class="cls-20" points="192.37 368.93 177.11 412.04 146.93 404.72 192.37 368.93"/>
  <polygon class="cls-23" points="182.94 249.76 106.64 362.76 27.69 190.69 182.94 249.76"/>
  <polygon class="cls-1" points="156.28 470.93 178.91 520.25 .29 520.25 .52 520.07 138.87 520.15 156.28 470.93"/>
  <polygon class="cls-18" points="177.11 412.04 172.15 426.06 146.02 405.44 146.93 404.72 177.11 412.04"/>
  <polygon class="cls-6" points="172.15 426.06 156.28 470.93 131.48 416.89 146.02 405.44 172.15 426.06"/>
  <polygon class="cls-22" points="131.48 416.89 156.28 470.93 138.87 520.15 .52 520.07 131.48 416.89"/>
  <polygon class="cls-21" points="146.93 404.72 146.02 405.44 144.32 404.09 146.93 404.72"/>
  <polygon class="cls-17" points="144.32 404.09 146.02 405.44 131.48 416.89 123.27 398.98 144.32 404.09"/>
  <polygon class="cls-12" points="144.32 404.09 123.27 398.98 115.77 382.64 116.6 382.21 144.32 404.09"/>
  <polygon class="cls-19" points="123.27 398.98 131.48 416.89 .52 520.07 .42 520.07 80.94 400.83 96.78 392.56 123.27 398.98"/>
  <polygon class="cls-12" points="123.27 398.98 96.78 392.56 115.77 382.64 123.27 398.98"/>
  <polygon class="cls-21" points="114.98 380.93 116.6 382.21 115.77 382.64 114.98 380.93"/>
  <polygon class="cls-8" points="115.77 382.64 96.78 392.56 87.96 390.42 101.54 370.32 114.98 380.93 115.77 382.64"/>
  <polygon class="cls-10" points="106.64 362.76 114.98 380.93 101.54 370.32 106.64 362.76"/>
  <polygon class="cls-13" points="27.69 190.69 106.64 362.76 101.54 370.32 .29 290.38 .29 152.84 .34 180.28 27.69 190.69"/>
  <polygon class="cls-9" points=".29 290.38 101.54 370.32 87.96 390.42 .29 369.16 .29 290.38"/>
  <polygon class="cls-8" points="96.78 392.56 80.94 400.83 87.96 390.42 96.78 392.56"/>
  <polygon class="cls-15" points="87.96 390.42 80.94 400.83 .29 442.94 .29 369.16 87.96 390.42"/>
  <polygon class="cls-19" points="80.94 400.83 .42 520.07 .52 520.07 .29 520.25 .29 442.94 80.94 400.83"/>
  <polygon class="cls-13" points=".29 130.98 27.69 190.69 .34 180.28 .29 152.84 .29 130.98"/>
  <polygon class="cls-21" points=".29 130.98 .29 152.84 .25 130.89 .29 130.98"/>
</svg>