<?xml version="1.0" encoding="UTF-8"?>
<svg id="Layer_1" data-name="Layer 1" xmlns="http://www.w3.org/2000/svg" width="23.09cm" height="29.1cm" viewBox="0 0 654.53 824.98">
  <defs>
    <style>
      .cls-1 {
        fill: #fff;
      }
    </style>
  </defs>
  <path class="cls-1" d="M327.27,100c27.47,0,53.3,10.7,72.73,30.12s30.12,45.25,30.12,72.73-10.7,53.3-30.12,72.73c-19.43,19.43-45.25,30.12-72.73,30.12s-53.3-10.7-72.73-30.12c-19.43-19.43-30.12-45.25-30.12-72.73s10.7-53.3,30.12-72.73c19.43-19.43,45.25-30.12,72.73-30.12M327.27,0C215.24,0,124.42,90.82,124.42,202.85s90.82,202.85,202.85,202.85,202.85-90.82,202.85-202.85S439.3,0,327.27,0h0Z"/>
  <path class="cls-1" d="M486.04,524.32c6.87,6.67,13.99,14.31,20.93,22.88,16.24,20.06,28.49,41.58,36.4,63.97,7.64,21.62,11.37,44.63,11.14,68.64-6.17,4.32-17.56,10.82-37.1,17.65-31.34,10.95-89.7,24.55-190.14,27.48-100.44-2.93-158.8-16.53-190.14-27.48-19.55-6.83-30.93-13.33-37.1-17.65-.23-24.01,3.5-47.02,11.14-68.64,7.91-22.39,20.15-43.91,36.4-63.97,6.94-8.58,14.07-16.21,20.93-22.88,39.14,19.1,92.65,36.61,157.92,37.17h.85s.85,0,.85,0c65.27-.56,118.78-18.07,157.92-37.17M491.29,402.8s-62.07,57.82-164.02,58.69c-101.96-.87-164.02-58.69-164.02-58.69,0,0-181.02,98.54-161.82,305.07,0,0,7.01,108.47,325.84,117.11,318.83-8.64,325.84-117.11,325.84-117.11,19.2-206.52-161.82-305.07-161.82-305.07h0Z"/>
</svg>