<?xml version="1.0" encoding="UTF-8"?>
<svg id="Layer_2" xmlns="http://www.w3.org/2000/svg" version="1.1" viewBox="0 0 916.4 435.4">
  <!-- Generator: Adobe Illustrator 29.6.1, SVG Export Plug-In . SVG Version: 2.1.1 Build 9)  -->
  <path d="M886.9,247.3c16.3,0,29.6-13.2,29.6-29.6s-13.2-29.6-29.6-29.6v59.1h0ZM8.7,196.8c-11.5,11.5-11.5,30.3,0,41.8l188.1,188.1c11.5,11.5,30.3,11.5,41.8,0,11.5-11.5,11.5-30.3,0-41.8L71.4,217.7,238.6,50.5c11.5-11.5,11.5-30.3,0-41.8-11.5-11.5-30.3-11.5-41.8,0L8.7,196.8ZM886.9,217.7v-29.6H29.6v59.1h857.3v-29.6h0Z"/>
</svg>