<?xml version="1.0" encoding="UTF-8"?>
<svg id="Layer_2" data-name="Layer 2" xmlns="http://www.w3.org/2000/svg" width="32.33cm" height="29.14cm" viewBox="0 0 916.57 825.98">
  <defs>
    <style>
      .cls-1 {
        fill: #fff;
      }
    </style>
  </defs>
  <path class="cls-1" d="M887,459.74c16.33,0,29.57-13.24,29.57-29.57s-13.24-29.57-29.57-29.57v59.13ZM8.66,409.26c-11.55,11.55-11.55,30.27,0,41.81l188.16,188.16c11.55,11.55,30.27,11.55,41.81,0,11.55-11.55,11.55-30.27,0-41.81l-167.25-167.26,167.25-167.25c11.55-11.55,11.55-30.27,0-41.81-11.55-11.55-30.27-11.55-41.81,0L8.66,409.26ZM887,430.17v-29.57H29.57v59.13h857.43v-29.57Z"/>
</svg>