<?xml version="1.0" encoding="UTF-8"?>
<svg id="Layer_2" data-name="Layer 2" xmlns="http://www.w3.org/2000/svg" width="32.37cm" height="29.14cm" viewBox="0 0 917.57 825.98">
  <defs>
    <style>
      .cls-1 {
        fill: #fff;
        stroke: #fff;
        stroke-miterlimit: 10;
      }
    </style>
  </defs>
  <path class="cls-1" d="M30.07,400.6c-16.33,0-29.57,13.24-29.57,29.57s13.24,29.57,29.57,29.57v-59.13ZM908.41,451.08c11.55-11.55,11.55-30.27,0-41.81l-188.16-188.16c-11.55-11.55-30.27-11.55-41.81,0-11.55,11.55-11.55,30.27,0,41.81l167.25,167.26-167.25,167.25c-11.55,11.55-11.55,30.27,0,41.81,11.55,11.55,30.27,11.55,41.81,0l188.16-188.16ZM30.07,430.17v29.57h857.43v-59.13H30.07v29.57Z"/>
</svg>