<?xml version="1.0" encoding="UTF-8"?>
<svg id="Layer_2" xmlns="http://www.w3.org/2000/svg" version="1.1" viewBox="0 0 916.6 435.5">
  <!-- Generator: Adobe Illustrator 29.6.1, SVG Export Plug-In . SVG Version: 2.1.1 Build 9)  -->
  <path d="M29.6,188.2c-16.3,0-29.6,13.2-29.6,29.6s13.2,29.6,29.6,29.6v-59.1h0ZM907.9,238.6c11.6-11.6,11.6-30.3,0-41.8L719.8,8.7c-11.6-11.6-30.3-11.6-41.8,0-11.6,11.6-11.6,30.3,0,41.8l167.3,167.3-167.3,167.3c-11.6,11.6-11.6,30.3,0,41.8,11.6,11.6,30.3,11.6,41.8,0l188.2-188.2h0ZM29.6,217.7v29.6h857.4v-59.1H29.6v29.6h0Z"/>
</svg>