<?xml version="1.0" encoding="UTF-8"?>
<svg id="Layer_1" data-name="Layer 1" xmlns="http://www.w3.org/2000/svg" width="29.23cm" height="29.14cm" viewBox="0 0 828.7 825.98">
  <defs>
    <style>
      .cls-1 {
        fill: #fff;
      }
    </style>
  </defs>
  <path class="cls-1" d="M597.62,756.97c-16.4,0-29.75-13.35-29.75-29.75v-90.98c0-71.54-58.21-129.75-129.75-129.75h-47.52c-71.54,0-129.75,58.21-129.75,129.75v90.98c0,16.4-13.35,29.75-29.75,29.75H79.75c-16.4,0-29.75-13.35-29.75-29.75v-355.9c0-8.98,3.99-17.39,10.96-23.06L395.56,75.69c6.78-5.52,13.96-6.68,18.79-6.68s12.01,1.16,18.79,6.68l334.6,272.57c6.97,5.67,10.96,14.08,10.96,23.06v355.9c0,16.4-13.35,29.75-29.75,29.75h-151.34Z"/>
  <path class="cls-1" d="M414.35,124.88l314.35,256.07v326.02h-110.83v-70.73c0-24.22-4.77-47.77-14.17-70-9.06-21.42-22.01-40.63-38.48-57.1-16.48-16.48-35.69-29.42-57.1-38.48-22.22-9.4-45.78-14.17-70-14.17h-47.52c-24.22,0-47.77,4.77-70,14.17-21.42,9.06-40.63,22.01-57.1,38.48-16.48,16.48-29.42,35.69-38.48,57.1-9.4,22.22-14.17,45.78-14.17,70v70.73h-110.85v-326.02L414.35,124.88M414.35,19.01c-17.85,0-35.7,5.97-50.37,17.92L29.38,309.49c-18.59,15.14-29.38,37.85-29.38,61.83v355.9c0,44.04,35.7,79.75,79.75,79.75h151.35c44.04,0,79.75-35.7,79.75-79.75v-90.98c0-44.04,35.7-79.75,79.75-79.75h47.52c44.04,0,79.75,35.71,79.75,79.75v90.98c0,44.04,35.71,79.75,79.75,79.75h151.34c44.04,0,79.75-35.7,79.75-79.75v-355.9c0-23.98-10.79-46.69-29.38-61.83L464.72,36.93c-14.66-11.95-32.52-17.92-50.37-17.92h0Z"/>
</svg>