<?xml version="1.0" encoding="UTF-8"?>
<svg id="Layer_1" data-name="Layer 1" xmlns="http://www.w3.org/2000/svg" width="23.13cm" height="29.14cm" viewBox="0 0 655.53 825.98">
  <defs>
    <style>
      .cls-1 {
        fill: #fff;
        stroke: #fff;
        stroke-miterlimit: 10;
      }
    </style>
  </defs>
  <path class="cls-1" d="M327.77.5C215.74.5,124.92,91.32,124.92,203.35s90.82,202.85,202.85,202.85,202.85-90.82,202.85-202.85S439.8.5,327.77.5h0Z"/>
  <path class="cls-1" d="M491.79,403.3s-62.07,57.82-164.02,58.69c-101.96-.87-164.02-58.69-164.02-58.69,0,0-181.02,98.54-161.82,305.07,0,0,7.01,108.47,325.84,117.11,318.83-8.64,325.84-117.11,325.84-117.11,19.2-206.52-161.82-305.07-161.82-305.07h0Z"/>
</svg>